<?xml version="1.0" encoding="UTF-8" standalone="no"?>
<svg
   class="svg-inline--fa fa-2x service-icon"
   viewBox="0 0 32.5 26"
   version="1.1"
   id="svg1"
   sodipodi:docname="compra.svg"
   inkscape:version="1.3 (0e150ed6c4, 2023-07-21)"
   xmlns:inkscape="http://www.inkscape.org/namespaces/inkscape"
   xmlns:sodipodi="http://sodipodi.sourceforge.net/DTD/sodipodi-0.dtd"
   xmlns="http://www.w3.org/2000/svg"
   xmlns:svg="http://www.w3.org/2000/svg">
  <defs
     id="defs1" />
  <sodipodi:namedview
     id="namedview1"
     pagecolor="#ffffff"
     bordercolor="#000000"
     borderopacity="0.25"
     inkscape:showpageshadow="2"
     inkscape:pageopacity="0.0"
     inkscape:pagecheckerboard="0"
     inkscape:deskcolor="#d1d1d1"
     showgrid="false"
     inkscape:zoom="20.038462"
     inkscape:cx="16.268714"
     inkscape:cy="13"
     inkscape:window-width="1366"
     inkscape:window-height="719"
     inkscape:window-x="0"
     inkscape:window-y="0"
     inkscape:window-maximized="1"
     inkscape:current-layer="svg1" />
  <path
     d="M13.81,14.62H10.56a.81.81,0,0,1-.81-.81V10.56a.81.81,0,0,1,.81-.81h3.25a.81.81,0,0,1,.81.81v1.89a3,3,0,0,1,2.28-1.08h7l.34-.38a.82.82,0,0,0,.19-.48.88.88,0,0,0-.25-.54l-3-2.66V2.44a.82.82,0,0,0-.81-.82H18.69a.82.82,0,0,0-.81.82v2l-4.5-4A2.05,2.05,0,0,0,12.19,0,2.05,2.05,0,0,0,11,.45L.24,10a.86.86,0,0,0-.24.54A.83.83,0,0,0,.18,11l1,1.08a.82.82,0,0,0,.55.24.9.9,0,0,0,.47-.17l1.1-1V19.5a1.62,1.62,0,0,0,1.63,1.62h8.93Z M32,22.75h-1.9V14.62A1.55,1.55,0,0,0,28.6,13H16.9a1.55,1.55,0,0,0-1.46,1.62v8.13h-1.9a.54.54,0,0,0-.54.54v.54A2.17,2.17,0,0,0,15.16,26H30.34a2.17,2.17,0,0,0,2.16-2.17v-.54A.54.54,0,0,0,32,22.75Zm-4.34,0H17.88V15.44h9.74Z"
     id="path1"
     style="fill:#5f0019;fill-opacity:1" />
</svg>
