<?xml version="1.0" encoding="UTF-8" standalone="no"?>
<svg
   class=""
   viewBox="598 -476.1 1792 1792"
   version="1.1"
   id="svg1"
   sodipodi:docname="envios.svg"
   inkscape:version="1.3 (0e150ed6c4, 2023-07-21)"
   inkscape:export-filename="envios.png"
   inkscape:export-xdpi="96"
   inkscape:export-ydpi="96"
   xmlns:inkscape="http://www.inkscape.org/namespaces/inkscape"
   xmlns:sodipodi="http://sodipodi.sourceforge.net/DTD/sodipodi-0.dtd"
   xmlns="http://www.w3.org/2000/svg"
   xmlns:svg="http://www.w3.org/2000/svg">
  <defs
     id="defs1" />
  <sodipodi:namedview
     id="namedview1"
     pagecolor="#ffffff"
     bordercolor="#000000"
     borderopacity="0.25"
     inkscape:showpageshadow="2"
     inkscape:pageopacity="0.0"
     inkscape:pagecheckerboard="0"
     inkscape:deskcolor="#d1d1d1"
     inkscape:zoom="0.29073661"
     inkscape:cx="894.28022"
     inkscape:cy="895.99999"
     inkscape:window-width="1366"
     inkscape:window-height="719"
     inkscape:window-x="0"
     inkscape:window-y="0"
     inkscape:window-maximized="1"
     inkscape:current-layer="svg1" />
  <path
     d="M1238 931.9c0-34.7-12.7-64.7-38-90s-55.3-38-90-38-64.7 12.7-90 38-38 55.3-38 90 12.7 64.7 38 90 55.3 38 90 38 64.7-12.7 90-38 38-55.3 38-90zm-384-512h384v-256h-158c-8.7 0-16 3-22 9l-195 195c-6 6-9 13.3-9 22v30zm1280 512c0-34.7-12.7-64.7-38-90s-55.3-38-90-38-64.7 12.7-90 38-38 55.3-38 90 12.7 64.7 38 90 55.3 38 90 38 64.7-12.7 90-38 38-55.3 38-90zm256-1088v1024c0 10-1.3 18.8-4 26.5s-7.2 13.8-13.5 18.5-11.8 8.5-16.5 11.5-12.5 5-23.5 6-18.5 1.7-22.5 2-12.5.3-25.5 0-20.5-.5-22.5-.5c0 70.7-25 131-75 181s-110.3 75-181 75-131-25-181-75-75-110.3-75-181h-384c0 70.7-25 131-75 181s-110.3 75-181 75-131-25-181-75-75-110.3-75-181h-64c-2 0-9.5.2-22.5.5s-21.5.3-25.5 0-11.5-1-22.5-2-18.8-3-23.5-6-10.2-6.8-16.5-11.5-10.8-10.8-13.5-18.5-4-16.5-4-26.5c0-17.3 6.3-32.3 19-45s27.7-19 45-19v-320c0-5.3-.2-17-.5-35s-.3-30.7 0-38 1.2-18.8 2.5-34.5 3.5-28 6.5-37 7.7-19.2 14-30.5 13.8-21.3 22.5-30l198-198c12.7-12.7 29.5-23.3 50.5-32s40.5-13 58.5-13h160v-192c0-17.3 6.3-32.3 19-45s27.7-19 45-19h1024c17.3 0 32.3 6.3 45 19s19 27.7 19 45z"
     id="path1"
     style="fill:#5f0019;fill-opacity:1" />
</svg>
