<?xml version="1.0" encoding="UTF-8" standalone="no"?>
<svg
   class="svg-credit-card-icon"
   viewBox="854 -476.1 2304 1792"
   version="1.1"
   id="svg1"
   sodipodi:docname="pagos.svg"
   inkscape:version="1.3 (0e150ed6c4, 2023-07-21)"
   xmlns:inkscape="http://www.inkscape.org/namespaces/inkscape"
   xmlns:sodipodi="http://sodipodi.sourceforge.net/DTD/sodipodi-0.dtd"
   xmlns="http://www.w3.org/2000/svg"
   xmlns:svg="http://www.w3.org/2000/svg">
  <defs
     id="defs1" />
  <sodipodi:namedview
     id="namedview1"
     pagecolor="#ffffff"
     bordercolor="#000000"
     borderopacity="0.25"
     inkscape:showpageshadow="2"
     inkscape:pageopacity="0.0"
     inkscape:pagecheckerboard="0"
     inkscape:deskcolor="#d1d1d1"
     inkscape:zoom="0.29073661"
     inkscape:cx="1152.2457"
     inkscape:cy="896"
     inkscape:window-width="1366"
     inkscape:window-height="719"
     inkscape:window-x="0"
     inkscape:window-y="0"
     inkscape:window-maximized="1"
     inkscape:current-layer="svg1" />
  <path
     d="M854 1027.9v-608h2304v608c0 44-15.7 81.7-47 113s-69 47-113 47H1014c-44 0-81.7-15.7-113-47s-47-69-47-113zm640-224v128h384v-128h-384zm-384 0v128h256v-128h-256zm1888-1152c44 0 81.7 15.7 113 47s47 69 47 113v224H854v-224c0-44 15.7-81.7 47-113s69-47 113-47h1984z"
     id="path1"
     style="fill:#5f0019;fill-opacity:1" />
</svg>
